<svg xmlns="http://www.w3.org/2000/svg" width="20" height="16" fill="none" viewBox="0 0 20 16">
  <path fill="#333" d="M7.625 12h-1.25a.38.38 0 0 0-.375.375v1.25a.36.36 0 0 0 .375.375h1.25A.38.38 0 0 0 8 13.625v-1.25A.403.403 0 0 0 7.625 12Zm0-6h-1.25A.38.38 0 0 0 6 6.375v1.25A.36.36 0 0 0 6.375 8h1.25A.38.38 0 0 0 8 7.625v-1.25A.403.403 0 0 0 7.625 6Zm-3 0h-1.25A.38.38 0 0 0 3 6.375v1.25A.36.36 0 0 0 3.375 8h1.25A.38.38 0 0 0 5 7.625v-1.25A.403.403 0 0 0 4.625 6Zm0 6h-1.25a.38.38 0 0 0-.375.375v1.25a.36.36 0 0 0 .375.375h1.25A.38.38 0 0 0 5 13.625v-1.25A.403.403 0 0 0 4.625 12Zm0-3h-1.25A.38.38 0 0 0 3 9.375v1.25a.36.36 0 0 0 .375.375h1.25A.38.38 0 0 0 5 10.625v-1.25A.403.403 0 0 0 4.625 9Zm3 0h-1.25A.38.38 0 0 0 6 9.375v1.25a.36.36 0 0 0 .375.375h1.25A.38.38 0 0 0 8 10.625v-1.25A.403.403 0 0 0 7.625 9Zm9 3h-1.25a.38.38 0 0 0-.375.375v1.25a.36.36 0 0 0 .375.375h1.25a.38.38 0 0 0 .375-.375v-1.25a.403.403 0 0 0-.375-.375Zm0-3h-1.25a.38.38 0 0 0-.375.375v1.25a.36.36 0 0 0 .375.375h1.25a.38.38 0 0 0 .375-.375v-1.25A.403.403 0 0 0 16.625 9Zm2.625-3H16V.75a.76.76 0 0 0-.75-.75h-6.5A.74.74 0 0 0 8 .75V3H7V.5c0-.25-.25-.5-.5-.5H6c-.281 0-.5.25-.5.5V3h-2V.5C3.5.25 3.25 0 3 0h-.5c-.281 0-.5.25-.5.5V3H.75a.74.74 0 0 0-.75.75V15.5c0 .281.219.5.5.5H1c.25 0 .5-.219.5-.5v-11h8v-3h5v6h4v8c0 .281.219.5.5.5h.5c.25 0 .5-.219.5-.5V6.75a.76.76 0 0 0-.75-.75Zm-6.625-3h-1.25a.38.38 0 0 0-.375.375v1.25a.36.36 0 0 0 .375.375h1.25A.38.38 0 0 0 13 4.625v-1.25A.403.403 0 0 0 12.625 3Zm0 6h-1.25a.38.38 0 0 0-.375.375v1.25a.36.36 0 0 0 .375.375h1.25a.38.38 0 0 0 .375-.375v-1.25A.403.403 0 0 0 12.625 9Zm0-3h-1.25a.38.38 0 0 0-.375.375v1.25a.36.36 0 0 0 .375.375h1.25A.38.38 0 0 0 13 7.625v-1.25A.403.403 0 0 0 12.625 6Z"/>
</svg>
