<svg xmlns="http://www.w3.org/2000/svg" width="20" height="14" fill="none" viewBox="0 0 20 14">
  <path fill="#333" d="M16.969 5.281C16.844 3.47 15.344 2 13.5 2c-.25 0-.5.031-.719.094C11.781.844 10.25 0 8.5 0a5.53 5.53 0 0 0-5.406 4.375A5.002 5.002 0 0 0 0 9c0 2.781 2.219 5 5 5h10.5c2.469 0 4.5-2 4.5-4.5 0-1.906-1.25-3.594-3.031-4.219ZM15.5 12.5H5A3.494 3.494 0 0 1 1.5 9c0-1.75 1.281-3.219 3-3.438V5.5c0-2.188 1.781-4 4-4A3.99 3.99 0 0 1 12.188 4a1.95 1.95 0 0 1 1.312-.5c1.094 0 2 .906 2 2 0 .375-.125.719-.281 1.031.094 0 .187-.031.281-.031a3 3 0 0 1 0 6ZM9.25 3.719a.36.36 0 0 0-.531 0l-3.25 3.25a.36.36 0 0 0 0 .531L6 8.031a.36.36 0 0 0 .531 0l1.719-1.75v4.344a.36.36 0 0 0 .375.375h.75a.38.38 0 0 0 .375-.375V6.281l1.688 1.75a.36.36 0 0 0 .53 0L12.5 7.5a.36.36 0 0 0 0-.531l-3.25-3.25Z"/>
</svg>
