<svg xmlns="http://www.w3.org/2000/svg" width="20" height="16" fill="none" viewBox="0 0 20 16">
  <path fill="#333" d="m19.438 8.5-3.594-1.406a.921.921 0 0 0-.719 0L11.531 8.5c-.312.125-.531.438-.531.75 0 3.5 2.125 5.906 4.125 6.688a.931.931 0 0 0 .719 0C17.438 15.312 20 13.155 20 9.25c0-.313-.219-.625-.563-.75ZM15.5 14.469V8.563l2.969 1.156c-.188 2.719-1.907 4.219-2.969 4.75Zm-4.375.031H1.5v-.781C1.5 12.219 2.688 11 4.188 11c.468 0 1.187.5 2.812.5 1.469 0 2.188-.406 2.656-.469a7.615 7.615 0 0 1-.156-1.5c-.813.125-1.25.469-2.531.469-1.469 0-1.875-.5-2.782-.5C1.876 9.5 0 11.406 0 13.719v.781c0 .844.656 1.5 1.5 1.5h10.969c-.5-.406-.938-.906-1.344-1.5ZM7 9c2.469 0 4.5-2 4.5-4.5C11.5 2.031 9.469 0 7 0 4.5 0 2.5 2.031 2.5 4.5 2.5 7 4.5 9 7 9Zm0-7.5c1.625 0 3 1.375 3 3 0 1.656-1.375 3-3 3a3 3 0 0 1-3-3c0-1.625 1.344-3 3-3Z"/>
</svg>
